<svg width="164" height="30" viewBox="0 0 164 30" fill="none" xmlns="http://www.w3.org/2000/svg">
<path fill-rule="evenodd" clip-rule="evenodd" d="M10.2079 2.05682C9.81805 3.50895 10.681 5.0012 12.1357 5.39002C13.5902 5.77884 15.0856 4.9171 15.4752 3.4653C15.8653 2.0135 15.002 0.520916 13.5476 0.132096C13.3113 0.0690625 13.0742 0.0390625 12.8404 0.0390625C11.6362 0.039231 10.5342 0.840973 10.2079 2.05682Z" fill="url(#paint0_linear)"/>
<path fill-rule="evenodd" clip-rule="evenodd" d="M6.90937 6.54283L1.39254 14.3423L1.36991 14.3705C0.90388 15.0131 -0.340325 16.804 0.194619 19.2633C0.775676 21.935 3.20328 24.1852 7.41104 25.9528C7.51644 25.998 7.6232 26.0332 7.7313 26.062C8.89696 26.3737 10.1432 25.7872 10.6237 24.6463C11.1506 23.4 10.5634 21.9649 9.31552 21.44C7.22811 20.5634 6.14589 19.7651 5.58426 19.175C5.16502 18.7348 5.03513 18.4102 4.99594 18.2568C4.98496 18.2133 4.98006 18.171 4.97601 18.1296C4.97466 18.1099 4.97398 18.0896 4.97331 18.0697C4.96689 17.7441 5.14678 17.4943 5.14357 17.4935L5.61618 16.8283L10.9168 9.36772L10.9594 9.30586C11.6877 8.20648 11.4137 6.72131 10.3283 5.95513C9.89861 5.65277 9.40454 5.50732 8.9152 5.50732C8.1453 5.50732 7.38723 5.86749 6.90937 6.54283Z" fill="url(#paint1_linear)"/>
<path fill-rule="evenodd" clip-rule="evenodd" d="M11.4726 26.2468C11.0826 27.6989 11.9457 29.1911 13.4002 29.5801C14.8547 29.9689 16.3501 29.1072 16.7398 27.6556C17.1298 26.2034 16.2667 24.7114 14.8123 24.322C14.576 24.2592 14.3387 24.229 14.1051 24.229C12.9011 24.229 11.7991 25.0313 11.4726 26.2468Z" fill="url(#paint2_linear)"/>
<path fill-rule="evenodd" clip-rule="evenodd" d="M16.3235 5.06538C15.7964 6.31206 16.3836 7.74718 17.6317 8.27167C19.7189 9.14858 20.8013 9.94678 21.3629 10.5367C21.7822 10.9771 21.9119 11.3017 21.9513 11.4552C21.9621 11.4987 21.9673 11.5407 21.971 11.5825C21.9725 11.6023 21.973 11.6222 21.9739 11.6421C21.9801 11.9681 21.8003 12.2173 21.8036 12.2185L21.3312 12.8836L16.0301 20.3443L15.9878 20.4063C15.2591 21.5055 15.5335 22.9905 16.6187 23.7567C17.7251 24.5347 19.2563 24.2738 20.0378 23.1685L25.5545 15.3695L25.5773 15.3414C26.0431 14.6987 27.2874 12.9078 26.7526 10.4484C26.1715 7.77701 23.7438 5.52701 19.5362 3.75903C19.4306 3.71386 19.3242 3.67864 19.2159 3.64965C19.0064 3.59369 18.7945 3.56689 18.5848 3.56689C17.6271 3.56689 16.7179 4.12982 16.3235 5.06538Z" fill="url(#paint3_linear)"/>
<path fill-rule="evenodd" clip-rule="evenodd" d="M154.318 28.5779C155.558 28.5779 156.32 28.2835 156.605 27.6944L163.23 12.4844C163.334 12.2797 163.386 12.0619 163.386 11.8315C163.386 11.2937 162.985 10.8009 162.184 10.3528C161.384 9.90478 160.673 9.68045 160.053 9.68045C159.33 9.68045 158.852 9.98787 158.619 10.6025L154.318 21.6643L150.018 10.5255C149.785 9.96242 149.294 9.68045 148.545 9.68045C147.848 9.68045 147.118 9.8982 146.356 10.3335C145.594 10.7687 145.213 11.2554 145.213 11.7931C145.213 12.0749 145.277 12.3051 145.407 12.4844L152.071 27.6944C152.33 28.2835 153.079 28.5779 154.318 28.5779ZM140.524 28.1554C141.196 28.1554 141.784 27.9889 142.287 27.656C142.791 27.3233 143.043 26.9648 143.043 26.5807V11.4474C143.043 10.9865 142.804 10.6152 142.326 10.3335C141.848 10.0517 141.248 9.91118 140.524 9.91118C139.801 9.91118 139.207 10.0517 138.742 10.3335C138.277 10.6152 138.045 10.9865 138.045 11.4474V26.5807C138.045 26.9901 138.284 27.3552 138.761 27.6754C139.239 27.9954 139.827 28.1554 140.524 28.1554ZM140.524 5.83978C141.273 5.83978 141.913 5.5964 142.442 5.11C142.972 4.62343 143.237 4.06017 143.237 3.42006C143.237 2.75416 142.972 2.18416 142.442 1.71073C141.913 1.23713 141.273 1 140.524 1C139.749 1 139.097 1.23713 138.568 1.71073C138.038 2.18416 137.774 2.75416 137.774 3.42006C137.774 4.06017 138.038 4.62343 138.568 5.11C139.097 5.5964 139.749 5.83978 140.524 5.83978ZM133.24 28.1554C133.912 28.1554 134.435 27.9505 134.809 27.5409C135.184 27.1312 135.371 26.6318 135.371 26.0429C135.371 25.4797 135.184 24.9929 134.809 24.5834C134.435 24.1738 133.912 23.9685 133.24 23.9685H131.729C130.928 23.9685 130.366 23.815 130.043 23.5079C129.721 23.2008 129.559 22.6755 129.559 21.9331V13.5215H134.131C134.519 13.5215 134.829 13.3425 135.061 12.9838C135.294 12.6252 135.41 12.2026 135.41 11.7162C135.41 11.2298 135.294 10.8075 135.061 10.4487C134.829 10.0902 134.519 9.91118 134.131 9.91118H129.559V3.30461C129.559 2.86944 129.307 2.50455 128.803 2.20994C128.3 1.91551 127.712 1.7682 127.041 1.7682C126.42 1.7682 125.852 1.91551 125.336 2.20994C124.819 2.50455 124.561 2.86944 124.561 3.30461V21.9331C124.561 26.0813 126.95 28.1554 131.729 28.1554H133.24ZM118.361 28.1554C119.033 28.1554 119.62 28.0147 120.124 27.7329C120.628 27.4511 120.88 27.0673 120.88 26.5807V17.4778C120.88 15.3523 120.215 13.5215 118.884 11.9851C117.554 10.4487 115.998 9.68045 114.215 9.68045C113.001 9.68045 111.935 9.96242 111.019 10.5255C110.102 11.0888 109.436 11.7801 109.023 12.5996V11.4474C109.023 10.9865 108.81 10.6152 108.384 10.3335C107.957 10.0517 107.434 9.91118 106.815 9.91118C106.065 9.91118 105.465 10.0517 105.013 10.3335C104.561 10.6152 104.335 10.9865 104.335 11.4474V26.5807C104.335 26.9901 104.574 27.3552 105.051 27.6754C105.529 27.9954 106.117 28.1554 106.815 28.1554C107.486 28.1554 108.074 27.9889 108.578 27.656C109.081 27.3233 109.333 26.9648 109.333 26.5807V17.4778C109.333 16.4535 109.65 15.6211 110.282 14.9808C110.915 14.3407 111.658 14.0208 112.51 14.0208C113.415 14.0208 114.202 14.3729 114.874 15.0771C115.546 15.7811 115.881 16.5813 115.881 17.4778V26.5807C115.881 27.0673 116.133 27.4511 116.637 27.7329C117.141 28.0147 117.716 28.1554 118.361 28.1554ZM95.5392 17.4011H89.882V16.3253C89.882 15.4292 90.2181 14.7058 90.8895 14.1552C91.5611 13.6049 92.3491 13.3295 93.2531 13.3295C94.2088 13.3295 95.0159 13.6111 95.6748 14.1746C96.3336 14.7376 96.6626 15.4674 96.6626 16.3639C96.6626 16.7734 96.5788 17.049 96.4109 17.1897C96.243 17.3305 95.9525 17.4011 95.5392 17.4011ZM94.2603 28.5011C96.1978 28.5011 97.8186 28.1488 99.1231 27.4448C100.428 26.7407 101.08 26.0301 101.08 25.3131C101.08 24.8522 100.899 24.372 100.537 23.8726C100.176 23.3736 99.7238 23.1237 99.1814 23.1237C98.8973 23.1237 98.2776 23.367 97.3214 23.8538C96.3657 24.34 95.3968 24.5834 94.4154 24.5834C93.0464 24.5834 91.9486 24.2441 91.1218 23.5654C90.2953 22.887 89.882 21.9971 89.882 20.8961V20.32H97.7477C98.2902 20.32 98.7292 20.2944 99.065 20.243C99.4008 20.1917 99.7691 20.0637 100.169 19.859C100.57 19.6541 100.867 19.302 101.061 18.8026C101.254 18.3034 101.351 17.6697 101.351 16.9015C101.351 14.8276 100.57 13.1053 99.0069 11.7354C97.4442 10.3656 95.565 9.68045 93.3695 9.68045C91.0187 9.68045 89.0168 10.436 87.3635 11.9468C85.7102 13.4574 84.8837 15.2626 84.8837 17.3625V20.6272C84.8837 22.9829 85.7555 24.8844 87.4991 26.3311C89.2426 27.7777 91.4966 28.5011 94.2603 28.5011ZM74.4997 28.5779C75.7395 28.5779 76.5014 28.2835 76.7856 27.6944L83.4111 12.4844C83.5148 12.2797 83.5664 12.0619 83.5664 11.8315C83.5664 11.2937 83.1659 10.8009 82.3654 10.3528C81.5644 9.90478 80.854 9.68045 80.2341 9.68045C79.5108 9.68045 79.0329 9.98787 78.8003 10.6025L74.4997 21.6643L70.1987 10.5255C69.9661 9.96242 69.4754 9.68045 68.7263 9.68045C68.0288 9.68045 67.2991 9.8982 66.537 10.3335C65.775 10.7687 65.3938 11.2554 65.3938 11.7931C65.3938 12.0749 65.4588 12.3051 65.5877 12.4844L72.2523 27.6944C72.5107 28.2835 73.2597 28.5779 74.4997 28.5779ZM61.1707 28.1554C61.8424 28.1554 62.4297 28.0147 62.9334 27.7329C63.4371 27.4511 63.6891 27.0673 63.6891 26.5807V17.4778C63.6891 15.3523 63.024 13.5215 61.6934 11.9851C60.3634 10.4487 58.8071 9.68045 57.0247 9.68045C55.8106 9.68045 54.7449 9.96242 53.8277 10.5255C52.911 11.0888 52.246 11.7801 51.8325 12.5996V11.4474C51.8325 10.9865 51.6194 10.6152 51.1932 10.3335C50.767 10.0517 50.2439 9.91118 49.624 9.91118C48.8749 9.91118 48.2742 10.0517 47.8222 10.3335C47.3702 10.6152 47.144 10.9865 47.144 11.4474V26.5807C47.144 26.9901 47.3831 27.3552 47.8609 27.6754C48.3388 27.9954 48.9264 28.1554 49.624 28.1554C50.2954 28.1554 50.8834 27.9889 51.3868 27.656C51.8906 27.3233 52.1425 26.9648 52.1425 26.5807V17.4778C52.1425 16.4535 52.459 15.6211 53.0916 14.9808C53.7245 14.3407 54.4672 14.0208 55.3196 14.0208C56.2239 14.0208 57.0117 14.3729 57.6833 15.0771C58.3549 15.7811 58.6907 16.5813 58.6907 17.4778V26.5807C58.6907 27.0673 58.9427 27.4511 59.4462 27.7329C59.9501 28.0147 60.5246 28.1554 61.1707 28.1554ZM40.7511 28.1554C41.4222 28.1554 42.0103 27.9889 42.5137 27.656C43.0175 27.3233 43.2694 26.9648 43.2694 26.5807V11.4474C43.2694 10.9865 43.0305 10.6152 42.5525 10.3335C42.0747 10.0517 41.4742 9.91118 40.7511 9.91118C40.0276 9.91118 39.4334 10.0517 38.9685 10.3335C38.5037 10.6152 38.2711 10.9865 38.2711 11.4474V26.5807C38.2711 26.9901 38.5099 27.3552 38.9878 27.6754C39.4656 27.9954 40.0535 28.1554 40.7511 28.1554ZM40.7511 5.83978C41.5 5.83978 42.1394 5.5964 42.6689 5.11C43.1983 4.62343 43.4629 4.06017 43.4629 3.42006C43.4629 2.75416 43.1983 2.18416 42.6689 1.71073C42.1394 1.23713 41.5 1 40.7511 1C39.9759 1 39.3236 1.23713 38.7941 1.71073C38.2645 2.18416 38 2.75416 38 3.42006C38 4.06017 38.2645 4.62343 38.7941 5.11C39.3236 5.5964 39.9759 5.83978 40.7511 5.83978Z" fill="#0D0F58"/>
<defs>
<linearGradient id="paint0_linear" x1="16.3392" y1="2.09161" x2="12.0087" y2="-0.674345" gradientUnits="userSpaceOnUse">
<stop stop-color="#00DFA1"/>
<stop offset="1" stop-color="#0D0E57"/>
</linearGradient>
<linearGradient id="paint1_linear" x1="-0.841796" y1="23.743" x2="11.6249" y2="26.0138" gradientUnits="userSpaceOnUse">
<stop stop-color="#0D0E57"/>
<stop offset="1" stop-color="#00DFA1"/>
</linearGradient>
<linearGradient id="paint2_linear" x1="10.5199" y1="27.8571" x2="14.8465" y2="30.6203" gradientUnits="userSpaceOnUse">
<stop stop-color="#00DFA1"/>
<stop offset="1" stop-color="#0D0E57"/>
</linearGradient>
<linearGradient id="paint3_linear" x1="26.0622" y1="6.38092" x2="14.8474" y2="4.33802" gradientUnits="userSpaceOnUse">
<stop stop-color="#0D0E57"/>
<stop offset="1" stop-color="#00DFA1"/>
</linearGradient>
</defs>
</svg>
