<?xml version="1.0" encoding="UTF-8"?>
<svg width="211px" height="30px" viewBox="0 0 211 30" version="1.1" xmlns="http://www.w3.org/2000/svg" xmlns:xlink="http://www.w3.org/1999/xlink">
    <!-- Generator: Sketch 44.1 (41455) - http://www.bohemiancoding.com/sketch -->
    <title>aiesec_logo_black</title>
    <desc>Created with Sketch.</desc>
    <defs></defs>
    <g id="Symbols" stroke="none" stroke-width="1" fill="none" fill-rule="evenodd">
        <g id="aiesec_logo_black">
            <g id="Aiesec-white">
                <rect id="Rectangle-path" fill="#FFFFFF" fill-rule="nonzero" x="14.2420705" y="1.72797357" width="127.779515" height="27.3895374"></rect>
                <path d="M60.3898678,9.07070485 L59.1317181,22.0400881 L58.9751101,23.4168502 L58.7768722,23.8889868 L58.7012115,24.3581498 L58.5029736,24.7523128 L58.2257709,25.027533 L57.9105727,25.3053965 L57.55837,25.5776432 L57.0455947,25.7368943 L56.534141,25.9681718 L56.4168502,26.0481278 L56.2186123,26.2030837 L56.1412996,26.4796256 L56.0213656,26.6778634 L56.0213656,26.8328194 L56.1412996,26.9520925 L56.2186123,27.0307269 L56.4168502,27.1087004 L72.0832599,27.1087004 L72.7110132,26.8328194 L73.3430617,26.5955947 L73.9311674,26.0477974 L74.4056167,25.6556167 L74.8757709,25.1028634 L75.2329295,24.5540749 L75.4285242,23.9646476 L75.7070485,23.4145374 L75.9816079,22.6671806 L76.0585903,21.9977974 L76.1772026,21.3313877 L76.1772026,21.1351322 L76.0585903,20.8585903 L76.0585903,20.7422907 L75.9816079,20.6629956 L75.5088106,20.6629956 L75.3488987,20.8585903 L74.8761013,21.411674 L74.2860132,22.1573789 L73.9318282,22.5868943 L73.4603524,22.9404185 L72.9512115,23.4132159 L72.3198238,23.8067181 L71.6504405,24.1582599 L70.7818282,24.5524229 L69.8401982,24.826652 L68.8159692,25.0248899 L67.7127753,25.1828194 L65.7482379,25.1828194 L65.2731278,25.1022026 L64.9179515,25.0252203 L64.7223568,24.9095815 L64.6440529,24.7503304 L64.5657489,24.5540749 L64.445815,24.355837 L64.3698238,23.886674 L64.3698238,23.2566079 L64.445815,22.3536344 L64.8409692,16.4223568 L64.9196035,16.0678414 L64.9995595,15.7929515 L65.0788546,15.5947137 L65.3940529,15.4397577 L65.5496696,15.2415198 L65.944163,15.1205947 L66.4569383,15.1205947 L67.0453744,15.0455947 L67.7140969,15.1205947 L68.8172907,15.1205947 L69.2897577,15.3188326 L69.7609031,15.5150881 L70.1174009,15.7909692 L70.3932819,16.1854626 L70.667511,16.6539648 L70.8627753,16.932489 L70.8627753,17.3223568 L71.0610132,17.9124449 L71.1393172,18.10837 L71.1393172,18.2269824 L71.2566079,18.3062775 L71.4165198,18.4618943 L71.6507709,18.4618943 L71.886674,18.3062775 L72.0052863,18.2269824 L72.0835903,18.10837 L72.2028634,17.7954846 L72.2028634,17.4812775 L72.3201542,15.9089207 L72.4007709,14.4171806 L72.5167401,13.5498899 L72.6740088,12.7625551 L72.6740088,12.0168502 L72.8312775,11.2331498 L72.8312775,10.5644273 L72.7126652,10.3661894 L72.6740088,10.2882159 L72.5953744,10.2882159 L72.4011013,10.1676211 L72.2028634,10.2882159 L72.0046256,10.2882159 L71.8860132,10.3661894 L71.7287445,10.7596916 L71.415859,11.3504405 L71.1386564,11.902533 L70.7814978,12.3340308 L70.3120044,12.6882159 L69.7589207,12.9640969 L69.2081498,13.1976872 L68.5390969,13.2769824 L67.9113436,13.3556167 L65.8255507,13.3556167 L65.6669604,13.2769824 L65.4703744,13.1976872 L65.2737885,13.0820485 L65.2737885,12.6885463 L65.8255507,6.59636564 L65.8255507,6.12356828 L65.9435022,5.73006608 L66.0621145,5.4564978 L66.1800661,5.29922907 L66.2980176,5.10330396 L66.6522026,4.98403084 L66.8504405,4.90671806 L69.486674,4.90671806 L70.784141,4.98403084 L71.8886564,5.10330396 L72.4027533,5.18259912 L72.7143172,5.37753304 L73.1501101,5.4561674 L73.4626652,5.6527533 L73.7398678,5.84900881 L73.934141,6.12323789 L74.1323789,6.28248899 L74.2080396,6.6753304 L74.4062775,6.98821586 L74.4062775,7.22312775 L74.4849119,8.0910793 L74.4849119,8.3246696 L74.6031938,8.59988987 L74.6031938,8.79482379 L74.6805066,8.87477974 L74.8761013,8.87477974 L75.03337,8.99405286 L75.3492291,8.87477974 L75.509141,8.79482379 L75.585793,8.59988987 L75.7077093,8.40165198 L75.7077093,7.1435022 L75.7837004,6.59471366 L75.7837004,6.00528634 L75.9019824,5.45451542 L75.9819383,4.82676211 L76.0589207,4.23535242 L76.0589207,3.29174009 L75.901652,3.17312775 L75.7073789,3.17312775 L75.2329295,3.055837 L58.2267621,3.055837 L57.8339207,3.17312775 L57.6759912,3.17312775 L57.5596916,3.25011013 L57.4780837,3.41101322 L57.3997797,3.60462555 L57.3997797,3.72455947 L57.4780837,3.95814978 L57.5596916,4.15638767 L57.7549559,4.23436123 L58.3856828,4.43259912 L59.0534141,4.62621145 L59.3312775,4.62621145 L59.5665198,4.82709251 L59.7627753,4.90407489 L59.95837,5.10066079 L60.0386564,5.37488987 L60.2368943,5.65011013 L60.3148678,6.28017621 L60.3915198,6.98590308 L60.3915198,9.07070485 L60.3898678,9.07070485 Z M77.909141,20.8609031 L78.6194934,25.7372247 L78.7381057,25.8528634 L78.8180617,25.9701542 L79.0912996,26.1294053 L79.3668502,26.2050661 L79.6427313,26.2050661 L81.1790749,26.680837 L82.6328194,27.0337004 L83.3814978,27.111674 L84.205837,27.3482379 L84.955837,27.4645374 L86.6078194,27.4645374 L87.6320485,27.2273128 L88.4580396,27.0337004 L89.2443833,26.7588106 L89.9530837,26.3659692 L90.6218062,25.8538546 L91.1745595,25.3830396 L91.8475771,24.8306167 L92.3197137,24.2811674 L92.7918502,23.7310573 L93.1457048,22.9846916 L93.5801762,22.3569383 L93.8537445,21.6882159 L93.9730176,21.020815 L94.2072687,20.3930617 L94.3268722,19.7223568 L94.3268722,18.110022 L94.0903084,17.4042952 L93.9330396,16.7349119 L93.7348018,16.067511 L93.4589207,15.5167401 L93.0644273,15.1222467 L92.7125551,14.6544053 L92.1997797,14.1835903 L91.7682819,13.8284141 L91.2938326,13.5512115 L90.821696,13.2763216 L89.7198238,12.6882159 L88.461674,12.2160793 L86.1776432,11.3504405 L85.1534141,10.9189427 L84.2068282,10.4481278 L83.853304,10.1702643 L83.4598018,9.89603524 L83.1849119,9.54449339 L82.8720264,9.22863436 L82.7121145,8.87511013 L82.634141,8.40297357 L82.5584802,7.9314978 L82.634141,7.34438326 L82.634141,7.06718062 L82.7121145,6.67566079 L82.8330396,6.39713656 L82.95,6.12356828 L83.1852423,5.84933921 L83.3834802,5.53513216 L83.65837,5.37786344 L83.9342511,5.10363436 L84.4863436,4.83006608 L85.23337,4.51486784 L85.9020925,4.35627753 L86.610793,4.23832599 L87.2418502,4.35627753 L87.7126652,4.43557269 L88.1871145,4.51486784 L88.6579295,4.70980176 L89.1300661,4.90803965 L89.6045154,5.10462555 L90.0753304,5.37885463 L90.4318282,5.73105727 L90.823348,6.00825991 L91.1788546,6.39845815 L91.5317181,6.91222467 L91.8482379,7.22511013 L92.2004405,7.73590308 L92.3986784,8.09306167 L92.5942731,8.60187225 L92.714207,9.15264317 L92.9124449,9.62345815 L92.9900881,10.0955947 L93.0680617,10.1719163 L93.226652,10.292511 L93.3069383,10.3704846 L93.6584802,10.3704846 L93.9356828,10.292511 L94.0929515,10.1719163 L94.3295154,9.9753304 L94.3295154,4.23964758 L94.405837,3.96244493 L94.3295154,3.6089207 L94.0929515,3.53094714 L93.8563877,3.53094714 L93.5828194,3.6089207 L93.148348,3.72885463 L92.7151982,3.96244493 L92.3223568,4.04405286 L91.8502203,3.96244493 L91.3764317,3.88678414 L90.1562775,3.29603524 L89.5238987,3.17742291 L88.6595815,2.90253304 L87.7146476,2.78689427 L86.6131057,2.62698238 L85.9044053,2.78689427 L85.1563877,2.90253304 L84.4886564,3.06046256 L83.739978,3.25473568 L83.0699339,3.53127753 L82.5611233,3.96277533 L81.9680617,4.3592511 L81.4566079,4.83303965 L80.9051762,5.30253304 L80.5476872,5.73204846 L80.1161894,6.28480176 L79.763326,6.91255507 L79.447467,7.57995595 L79.290859,8.16938326 L79.0926211,8.87742291 L79.0926211,11.1178414 L79.2125551,11.9051762 L79.3681718,12.6132159 L79.5664097,13.2003304 L79.8406388,13.7491189 L80.1948238,14.1849119 L80.6279736,14.6557269 L81.1007709,15.0522026 L81.5722467,15.4450441 L82.0420705,15.7972467 L82.5594714,16.0721366 L83.6590308,16.6599119 L84.7612335,17.1736784 L87.0046256,17.996696 L88.1094714,18.3125551 L89.0517621,18.9026432 L89.5225771,19.1768722 L89.8004405,19.4527533 L90.1546256,19.7269824 L90.3502203,20.1204846 L90.5484581,20.4740088 L90.7047357,20.8661894 L90.7047357,21.9231278 L90.6264317,22.3575991 L90.5484581,22.7890969 L90.4321586,23.2605727 L90.2705947,23.6140969 L90.0756608,23.9682819 L89.8007709,24.282489 L89.5229075,24.5577093 L89.2493392,24.8319383 L88.8528634,25.0301762 L88.5412996,25.3080396 L88.1871145,25.3843612 L87.7126652,25.5802863 L87.3198238,25.7395374 L86.8853524,25.7395374 L85.9807269,25.8551762 L85.4302863,25.8551762 L84.8378855,25.7395374 L84.3277533,25.6602423 L83.7376652,25.3843612 L83.2661894,25.1881057 L82.83337,25.0301762 L82.2796256,24.6373348 L81.9660793,24.360793 L81.5719163,23.9692731 L81.1797357,23.6150881 L80.8245595,23.1029736 L80.5460352,22.6734581 L79.9182819,21.6911894 L79.4444934,20.7459251 L79.2878855,20.2731278 L79.0896476,19.801652 L79.0123348,19.6460352 L78.8167401,19.4477974 L78.7367841,19.369163 L78.4635463,19.2505507 L78.0670705,19.369163 L77.9068282,19.4477974 L77.7898678,19.6460352 L77.6712555,19.7230176 L77.6712555,20.0398678 L77.7898678,20.2741189 L77.909141,20.8609031 Z M98.5777533,9.07070485 L97.2389868,22.0400881 L97.2389868,22.7874449 L97.1203744,23.4151982 L96.9631057,23.8873348 L96.7648678,24.3564978 L96.5692731,24.7506608 L96.2947137,25.0288546 L96.0188326,25.3067181 L95.6659692,25.5789648 L95.1948238,25.7382159 L94.7203744,25.9694934 L94.5221366,26.0494493 L94.4022026,26.2044053 L94.2066079,26.4809471 L94.2066079,26.8344714 L94.3262115,26.9537445 L94.402533,27.0323789 L94.6397577,27.1103524 L110.310132,27.1103524 L110.85859,26.8344714 L111.530286,26.5972467 L112.079405,26.0494493 L112.513216,25.6572687 L112.984361,25.1045154 L113.340198,24.5557269 L113.538436,23.9662996 L114.088546,22.6688326 L114.245815,21.9994493 L114.324119,21.3330396 L114.324119,21.1367841 L114.245815,20.8602423 L114.165859,20.7439427 L114.165859,20.6676211 L113.656057,20.6676211 L113.457819,20.8632159 L112.985022,21.4162996 L112.351982,22.1610132 L111.959141,22.5905286 L111.529626,22.9440529 L111.054515,23.4168502 L110.465088,23.8103524 L109.715088,24.1618943 L108.929405,24.5560573 L107.946476,24.8302863 L106.962555,25.0285242 L105.820374,25.1864537 L103.970154,25.1864537 L103.459361,25.105837 L103.143502,25.0288546 L102.90826,24.9132159 L102.828304,24.7539648 L102.630066,24.5577093 L102.513106,24.3594714 L102.432819,23.8903084 L102.432819,22.3572687 L103.022907,16.4223568 L103.142841,16.0678414 L103.220485,15.7929515 L103.261123,15.5947137 L103.459361,15.4397577 L103.770595,15.2415198 L104.16707,15.1205947 L104.60022,15.1205947 L105.188656,15.0455947 L105.820044,15.1205947 L106.962225,15.1205947 L107.510352,15.3188326 L107.867511,15.5150881 L108.260683,15.7909692 L108.613546,16.1854626 L108.850441,16.6539648 L108.929075,16.932489 L109.044714,17.3223568 L109.28326,17.9124449 L109.481498,18.226652 L109.481498,18.3059471 L109.638767,18.4615639 L109.837004,18.4615639 L110.112885,18.3059471 L110.112885,18.226652 L110.311123,18.1080396 L110.386784,17.7951542 L110.386784,17.4809471 L110.46674,16.6549559 L110.46674,15.9099119 L110.584692,14.4181718 L110.78293,12.7635463 L110.859912,11.234141 L110.938546,10.8376652 L110.938546,10.3661894 L110.859912,10.2882159 L110.78293,10.2882159 L110.584692,10.1676211 L110.386454,10.2882159 L110.190198,10.2882159 L110.112225,10.3661894 L109.91663,10.7596916 L109.639427,11.347467 L109.363546,11.8995595 L108.930727,12.3310573 L108.537555,12.6852423 L107.868833,12.9611233 L107.317401,13.1947137 L106.647357,13.2740088 L106.017291,13.3526432 L104.04978,13.3526432 L103.771256,13.2740088 L103.575661,13.1947137 L103.340419,13.0790749 L103.340419,12.6855727 L103.970485,6.59339207 L103.970485,6.12059471 L104.04978,5.72709251 L104.168392,5.45352423 L104.362665,5.29625551 L104.521256,5.1003304 L104.837115,4.98105727 L104.992731,4.90374449 L107.594273,4.90374449 L108.931718,4.98105727 L110.113216,5.1003304 L110.467401,5.17962555 L110.938877,5.37455947 L111.213106,5.45319383 L111.607599,5.64977974 L111.764868,5.84603524 L112.081057,6.12026432 L112.237665,6.27951542 L112.354626,6.67235683 L112.433921,6.98524229 L112.514868,7.22015419 L112.630507,8.08810573 L112.630507,8.5969163 L112.710463,8.79185022 L112.828744,8.87180617 L112.907379,8.87180617 L113.064978,8.9910793 L113.458811,8.87180617 L113.657048,8.79185022 L113.734031,8.5969163 L113.853965,8.39867841 L113.853965,6.59603524 L113.970264,6.00660793 L114.089537,4.82940529 L114.246806,3.60693833 L114.246806,3.41332599 L114.16685,3.29405286 L114.089868,3.17544053 L113.854295,3.17544053 L113.419824,3.05814978 L96.4129956,3.05814978 L96.0185022,3.17544053 L95.8202643,3.17544053 L95.7419604,3.25242291 L95.6646476,3.41332599 L95.5453744,3.60693833 L95.5453744,3.72687225 L95.6646476,3.96046256 L95.8205947,4.15870044 L95.9378855,4.23667401 L96.5679515,4.43491189 L97.2379956,4.62852423 L97.5502203,4.62852423 L97.7088106,4.82940529 L97.8677313,4.90638767 L98.0659692,5.10297357 L98.2232379,5.37720264 L98.3015419,5.65242291 L98.4971366,6.28248899 L98.5770925,6.98821586 L98.5770925,9.07070485 L98.5777533,9.07070485 Z M43.3870044,27.1103524 L53.4247797,27.1103524 L53.6230176,27.0323789 L53.7773128,26.9537445 L54.014207,26.8344714 L54.095815,26.6795154 L54.014207,26.2044053 L53.8959251,25.9694934 L53.6976872,25.7382159 L53.0699339,25.7382159 L52.6767621,25.5789648 L52.1639868,25.3830396 L51.8111233,25.105837 L51.376652,24.7536344 L51.2180617,24.5573789 L51.1410793,24.2821586 L51.0617841,23.9679515 L50.9038546,23.6137665 L50.9038546,22.9450441 L52.3612335,7.22312775 L52.4785242,6.39713656 L52.5984581,5.92929515 L52.6767621,5.53480176 L52.9513216,5.18259912 L53.2272026,4.90671806 L53.6236784,4.62885463 L54.0964758,4.43524229 L54.8415198,4.16002203 L54.9977974,4.04207048 L55.1960352,3.96046256 L55.3942731,3.72687225 L55.3942731,3.41332599 L55.2743392,3.25242291 L55.1973568,3.17544053 L55.1157489,3.17544053 L54.8421806,3.05814978 L45.2365639,3.05814978 L44.6834802,3.17544053 L44.4105727,3.17544053 L44.214978,3.25242291 L44.135022,3.41332599 L44.0180617,3.60693833 L44.0180617,4.04207048 L44.135022,4.2376652 L44.4109031,4.43590308 L44.6838106,4.43590308 L45.1566079,4.51519824 L45.7896476,4.62951542 L46.140859,4.83039648 L46.5340308,4.98469163 L46.7725771,5.45682819 L47.0084802,5.92962555 L47.2040749,6.4784141 L47.0877753,7.22411894 L45.7110132,22.9453744 L45.6327093,23.3398678 L45.4737885,23.8906388 L45.2382159,24.3598018 L45.0809471,24.8319383 L44.6844714,25.3070485 L44.4905286,25.4993392 L44.4118943,25.6592511 L44.1360132,25.7385463 L43.8617841,25.854185 L43.6635463,25.9714758 L43.388326,25.9714758 L43.0318282,25.854185 L42.8335903,25.7385463 L42.6386564,25.6592511 L42.3621145,25.4993392 L41.9702643,25.0288546 L41.7317181,24.5573789 L41.5361233,23.9679515 L41.1822687,23.4178414 L40.9840308,22.3569383 L33.9373348,3.41299559 L33.7830396,2.98017621 L33.5828194,2.7845815 L33.4671806,2.6246696 L33.189978,2.7845815 L33.0320485,2.98017621 L32.7194934,3.29372247 L32.4812775,3.96013216 L20.7522026,24.0835903 L20.5585903,24.5570485 L20.2374449,24.9135463 L19.9202643,25.1871145 L19.4907489,25.5792952 L19.1342511,25.7385463 L18.6644273,25.9698238 L18.3479075,26.0497797 L18.2712555,26.2047357 L18.0730176,26.4812775 L18.0730176,26.9540749 L18.1909692,27.0327093 L18.2715859,27.1106828 L26.696696,27.1106828 L26.7723568,27.0327093 L26.8506608,26.9540749 L26.8506608,26.4825991 L26.6963656,26.2060573 L26.4981278,26.0511013 L26.2225771,25.9711454 L25.4738987,25.7398678 L24.6888767,25.5806167 L24.1751101,25.30837 L23.7436123,24.9148678 L23.5050661,24.7556167 L23.4280837,24.5593612 L23.3494493,24.3611233 L23.3494493,24.0855727 L23.4280837,23.4968062 L23.6263216,22.670815 L23.9022026,21.9227974 L24.2950441,21.0211454 L24.7678414,20.272467 L25.1220264,20.0382159 L25.3176211,19.7223568 L25.6305066,19.4481278 L25.946696,19.2498899 L26.2232379,19.1712555 L32.8367841,19.1712555 L33.6627753,19.2498899 L33.9363436,19.3685022 L34.1345815,19.4471366 L34.3328194,19.6453744 L34.4900881,19.7223568 L34.7256608,20.115859 L34.8842511,20.4693833 L35.2384361,21.8451542 L35.6329295,22.9853524 L35.7099119,23.6131057 L35.7099119,23.9672907 L35.6329295,24.3588106 L35.5912996,24.7529736 L35.3930617,25.0281938 L35.157489,25.3060573 L34.9592511,25.498348 L34.725,25.7375551 L34.4114537,25.8548458 L34.1359031,25.9721366 L33.7837004,26.0530837 L33.4678414,26.1323789 L33.3118943,26.3682819 L33.1889868,26.4825991 L33.111674,26.5988987 L33.111674,26.8361233 L33.3099119,27.0343612 L33.465859,27.1123348 L43.3863436,27.1123348 L43.3870044,27.1103524 Z M27.4443833,15.7909692 L30.0789648,11.0352423 L30.315859,10.5644273 L30.5530837,10.2885463 L30.5530837,10.1679515 L30.8273128,10.1679515 L30.9852423,10.2885463 L31.3387665,10.7623348 L33.1889868,15.5957048 L33.5818282,16.460022 L33.6624449,16.7352423 L33.6624449,17.0494493 L33.5818282,17.0494493 L33.4661894,17.1693833 L33.3102423,17.1693833 L32.835793,17.2473568 L27.7179515,17.2473568 L27.3234581,17.1693833 L27.165859,17.1693833 L27.0865639,17.0494493 L26.9702643,16.9344714 L26.9702643,16.7362335 L27.0865639,16.4610132 L27.2464758,16.1881057 L27.4443833,15.7909692 Z M198.409361,6.47544053 L198.487996,6.19955947 L198.686233,5.92665198 L198.961784,5.37522026 L199.354956,4.82742291 L199.513546,4.51222467 L199.593502,4.23568282 L199.747797,3.60495595 L199.747797,1.24823789 L199.867731,0.854735683 L199.944714,0.580506608 L200.02533,0.501872247 L200.298899,0.306277533 L200.494493,0.225660793 L200.850991,0.146365639 L201.244493,0.0313876652 L201.715969,0.146365639 L202.032159,0.225660793 L202.387335,0.306277533 L202.70022,0.580506608 L202.781498,0.777753304 L202.85815,0.975991189 L202.935132,1.3311674 L203.053744,1.64405286 L203.053744,2.31277533 L202.85815,2.90154185 L202.700881,3.41431718 L202.464317,3.88579295 L202.229405,4.16068282 L202.032819,4.23865639 L201.796586,4.35660793 L201.71663,4.35660793 L201.520044,4.23865639 L201.44207,4.71013216 L201.400771,5.10363436 L201.400771,5.6530837 L201.520044,6.12389868 L201.796586,6.91123348 L202.032819,7.22411894 L202.110793,7.73491189 L202.229405,8.16773128 L202.229405,10.0949339 L202.309361,10.5677313 L202.387665,10.763326 L202.464317,11.0382159 L203.053744,11.7069383 L203.99967,12.689207 L204.551101,13.0827093 L205.301101,13.5528634 L205.932489,14.0236784 L206.128084,14.1829295 L206.203744,14.4201542 L206.325,14.6537445 L206.325,14.8473568 L206.203744,15.0488987 L206.046145,15.1238987 L205.772577,15.3221366 L205.455066,15.3221366 L204.906278,15.4420705 L204.827643,15.1242291 L204.629405,14.7720264 L204.354846,14.4204846 L203.997687,14.103304 L203.643833,13.747467 L203.171696,13.4732379 L202.698899,13.1990088 L202.307379,12.9654185 L202.307379,14.6544053 L202.462335,15.4424009 L202.779515,16.0701542 L202.93315,16.8188326 L203.25033,17.7997797 L203.997687,19.725 L204.629075,21.3373348 L204.904626,22.0037445 L205.021916,22.3595815 L205.453414,23.6150881 L205.84989,24.7552863 L206.324009,25.7398678 L206.990088,27.1136564 L207.110022,27.3502203 L207.30826,27.5464758 L207.506498,27.6227974 L207.819383,27.6627753 L208.921586,27.6627753 L209.47467,27.6227974 L209.868502,27.6627753 L210.025771,27.7820485 L210.104075,27.9 L210.222687,28.0949339 L210.222687,28.2931718 L209.118172,28.5690529 L208.294493,28.8432819 L207.309251,29.1198238 L206.677863,29.3927313 L206.403634,29.5143172 L206.047137,29.5143172 L205.93348,29.3927313 L205.851872,29.2364537 L205.773568,29.1201542 L205.655617,28.76663 L205.457379,28.2938326 L204.90859,27.2309471 L204.277203,26.1337004 L203.725771,25.1094714 L203.254295,23.9715859 L202.860132,23.3438326 L202.46663,22.6751101 L201.522026,21.3393172 L201.168502,20.7498899 L200.774009,20.1221366 L200.618062,19.4540749 L200.419824,19.1781938 L200.419824,18.7453744 L200.29989,19.4540749 L200.143612,20.044163 L199.945374,20.5942731 L199.747137,21.1443833 L199.1587,22.16663 L198.488326,22.9926211 L197.148899,25.0288546 L196.403194,25.9711454 L195.770485,27.1120044 L195.576211,27.4648678 L195.496256,27.6614537 L195.496256,28.014978 L195.576211,28.290859 L195.651872,28.4874449 L195.770485,28.6856828 L196.12533,28.9585903 L196.403524,29.2344714 L196.718392,29.5123348 L196.796366,29.5903084 L196.718392,29.7075991 L196.639097,29.7862335 L196.403524,29.864207 L196.205286,29.9814978 L195.496586,29.9814978 L195.298348,29.864207 L195.10011,29.7862335 L194.748568,29.3897577 L194.155507,28.7620044 L193.684031,28.289207 L193.448458,27.8970264 L193.252863,27.6598018 L193.252863,27.4632159 L193.328524,27.1103524 L193.684361,26.4825991 L194.001542,26.0511013 L194.077533,25.7382159 L194.627643,25.0288546 L195.222357,24.1628855 L195.651872,23.2599119 L196.048348,22.2763216 L196.32522,21.4919604 L196.639758,20.8618943 L196.797026,20.1161894 L196.872687,19.6453744 L196.872687,19.0932819 L197.387115,15.9875551 L197.585352,14.2965859 L197.662335,12.6872247 L197.464097,13.196696 L197.309141,13.7454846 L196.953634,14.9656388 L196.797687,16.1881057 L196.719714,17.0504405 L196.205947,17.2486784 L195.93304,17.3259912 L195.653194,17.4059471 L195.380286,17.4059471 L195.224339,17.3259912 L195.024119,17.1710352 L194.907159,16.8181718 L194.907159,16.6572687 L195.024119,16.2674009 L195.379956,15.5187225 L195.771476,14.7723568 L195.89141,14.4964758 L195.932709,14.2982379 L196.048678,13.552533 L196.126322,12.7651982 L196.562775,11.4313877 L196.872687,10.1705947 L197.386123,9.07070485 L198.13315,7.34273128 L198.409031,6.9092511 L198.409031,6.47643172 L198.409361,6.47544053 Z M138.613877,8.52059471 L138.534251,3.72488987 L138.534251,3.60495595 L138.414978,3.52698238 L138.337004,3.41134361 L138.138767,3.29207048 L137.867181,3.41134361 L137.589978,3.52698238 L137.39174,3.72522026 L137.311784,3.95881057 L137.113546,4.15704846 L136.917952,4.35297357 L136.759361,4.51156388 L136.445154,4.51156388 L135.973678,4.43226872 L135.422907,4.23403084 L133.847577,3.60330396 L132.823348,3.24878855 L131.642511,2.97654185 L130.42467,2.78094714 L129.751652,2.78094714 L129.083921,2.62103524 L127.942731,2.78094714 L126.801211,2.8965859 L125.581057,3.05451542 L124.596476,3.40969163 L123.456608,3.88348018 L122.238106,4.35429515 L121.253524,4.98204846 L120.307599,5.65077093 L119.833811,6.1215859 L119.362665,6.47610132 L119.006498,6.98920705 L118.456388,7.42367841 L118.102533,8.01145374 L117.749009,8.52356828 L117.352533,9.15132159 L117.078965,9.70143172 L116.723128,10.369163 L116.52489,11.0378855 L116.251652,11.8238987 L115.977423,12.6112335 L115.779185,13.3562775 L115.582599,14.1029736 L115.505617,14.9672907 L115.384692,15.7932819 L115.384692,16.5396476 L115.265419,17.2476872 L115.384692,17.9147577 L115.384692,18.464207 L115.505617,19.0919604 L115.69989,19.7197137 L115.857489,20.2698238 L115.977093,20.7426211 L116.251322,21.3320485 L116.40859,21.8428414 L117.00033,22.785793 L117.628084,23.6117841 L118.377423,24.357489 L119.203414,25.0268722 L120.106388,25.6569383 L121.012996,26.1284141 L122.076542,26.679185 L123.100771,27.0320485 L124.202313,27.2256608 L125.226542,27.4628855 L127.626872,27.4628855 L128.259251,27.3465859 L128.887004,27.110022 L130.067841,26.834141 L131.171035,26.4806167 L132.195264,26.0491189 L133.138546,25.5769824 L134.044163,25.0268722 L134.793502,24.4367841 L135.50022,23.8879956 L136.131608,23.3372247 L136.643062,22.7864537 L137.114537,22.1587004 L137.511013,21.6865639 L137.783921,21.3330396 L137.865529,20.9401982 L137.981167,20.7436123 L137.981167,20.4693833 L137.865529,20.3930617 L137.783921,20.272467 L137.392731,20.272467 L137.233811,20.3930617 L136.761013,20.5879956 L136.331498,21.020815 L135.97533,21.335022 L135.227313,22.0014317 L134.362004,22.670815 L133.416079,23.2602423 L132.470485,23.7323789 L131.446256,24.0839207 L130.426322,24.4390969 L129.320154,24.6373348 L127.351982,24.6373348 L126.606278,24.4390969 L125.780286,24.1632159 L125.111564,23.811674 L124.483811,23.3395374 L123.773789,22.7887665 L123.226652,22.1610132 L122.750881,21.4922907 L122.240749,20.7455947 L121.886564,19.9196035 L121.609361,19.0936123 L121.33348,18.1106828 L121.256498,17.2476872 L121.138546,16.1874449 L121.138546,14.2979075 L121.33348,12.9640969 L121.49207,11.7059471 L121.76663,10.5664097 L122.159471,9.544163 L122.593943,8.59988987 L122.948789,7.85418502 L123.536894,7.06685022 L123.972687,6.47742291 L124.640088,5.92863436 L125.23315,5.455837 L125.900551,5.10297357 L126.609251,4.82940529 L127.277974,4.51420705 L128.025,4.43491189 L128.892952,4.35561674 L129.679626,4.2376652 L130.34967,4.35561674 L130.822467,4.35561674 L131.371256,4.51420705 L131.924009,4.62852423 L132.396806,4.82940529 L132.946916,5.10297357 L133.419714,5.37720264 L133.968502,5.72940529 L134.481608,6.12290749 L134.797797,6.47742291 L135.30859,6.98821586 L135.78304,7.57764317 L136.135903,8.0910793 L136.530066,8.67885463 L136.923238,9.3469163 L137.316079,10.0932819 L137.396035,10.3681718 L137.594273,10.6453744 L137.789868,10.9182819 L137.871476,11.0368943 L138.06707,11.1148678 L138.224339,11.0368943 L138.538546,10.8386564 L138.618172,10.5650881 L138.618172,10.3668502 L138.698789,9.97037445 L138.618172,9.54085903 L138.618172,8.51927313 L138.613877,8.52059471 Z M188.213656,22.0394273 L188.053744,22.7867841 L187.937775,23.4145374 L187.623568,24.4354626 L187.463656,25.3797357 L187.309692,27.7770925 L187.309692,28.089978 L187.387665,28.2882159 L187.463987,28.3668502 L187.623899,28.5650881 L188.053414,28.8393172 L188.527863,29.115859 L189.353855,29.510022 L189.513767,29.7049559 L189.628084,29.7835903 L189.513767,29.8615639 L189.43348,29.8615639 L189.355176,29.9788546 L185.693062,29.9788546 L185.535793,29.8615639 L185.417181,29.7835903 L185.417181,29.3140969 L185.535793,29.0382159 L185.693062,28.839978 L185.771696,28.6843612 L185.848678,28.2901982 L185.848678,27.7810573 L185.969934,27.1123348 L185.848678,25.9714758 L185.771696,24.8319383 L185.771696,24.282489 L185.848678,23.7323789 L184.593172,24.4390969 L183.882819,24.9135463 L183.5663,25.3070485 L183.214097,25.6592511 L183.015859,25.7385463 L183.015859,25.854185 L182.937885,26.2063877 L183.015859,26.7594714 L183.096145,27.1123348 L183.294383,28.0939427 L183.294383,28.3698238 L183.214427,28.5680617 L183.016189,28.686674 L182.938216,28.5680617 L182.546366,28.2921806 L182.032599,27.5451542 L181.521145,26.4825991 L181.089648,25.9711454 L181.048018,25.6589207 L181.048018,25.3830396 L181.089648,25.1867841 L181.795374,25.0288546 L181.955286,24.8306167 L182.268172,24.635022 L183.015198,23.8090308 L183.762555,22.9830396 L184.592511,22.0387665 L185.062665,21.6066079 L185.771366,21.135793 L185.969604,20.8592511 L186.206828,20.2698238 L186.364097,20.0355727 L186.442401,19.7197137 L186.442401,19.4454846 L186.364097,19.2472467 L185.848348,18.225 L185.417181,17.3207048 L185.062996,16.2634361 L184.867401,15.711674 L184.708811,15.0465859 L184.592841,14.2965859 L184.592841,13.590859 L184.708811,13.0807269 L184.867401,12.5292952 L185.062996,12.0178414 L185.181608,11.4300661 L185.260242,10.8393172 L185.260242,10.1692731 L185.062004,10.367511 L184.86641,10.5657489 L184.707819,11.1145374 L184.315639,12.33337 L183.882819,13.4719163 L183.762885,13.8290749 L183.646916,14.1019824 L183.5663,14.1819383 L183.4087,14.4948238 L183.294053,14.8463656 L183.095815,14.9662996 L183.015529,15.0475771 L182.821256,15.1225771 L182.545705,15.0475771 L182.347467,14.9662996 L182.267511,14.7707048 L182.15022,14.6527533 L182.267511,14.4948238 L182.544714,14.1819383 L182.740969,14.0226872 L182.936564,13.7461454 L183.014537,13.2769824 L183.094824,12.6882159 L183.293062,11.7845815 L183.293062,11.7059471 L183.565308,10.5664097 L183.761894,9.97334802 L184.315308,8.79449339 L184.59152,8.0907489 L184.789758,7.42202643 L184.985352,6.90991189 L185.061013,6.20121145 L185.179626,5.65176211 L185.337225,5.37654185 L185.415198,5.10231278 L185.769383,4.51354626 L185.967621,3.95980176 L186.123568,3.25176211 L186.362115,2.54669604 L186.362115,2.2314978 L186.440419,1.8 L186.557709,1.444163 L186.674009,1.05330396 L186.872247,0.698127753 L187.306718,0.385242291 L187.620925,0.226651982 L187.855507,0.147356828 L188.051101,0.147356828 L188.525551,0.226651982 L188.804075,0.307268722 L189.037665,0.385242291 L189.155617,0.581828194 L189.353855,0.974669604 L189.513767,1.24955947 L189.513767,1.99625551 L189.628084,2.15484581 L189.628084,2.31145374 L189.513767,2.54702643 L189.513767,2.89988987 L189.43348,3.05748899 L189.355176,3.29306167 L189.156938,3.52830396 L189.038987,3.60627753 L188.882379,3.72621145 L188.684141,3.88414097 L188.525551,3.72621145 L188.525551,3.88348018 L188.331278,3.88348018 L188.331278,3.95914097 L188.211344,4.0407489 L188.132709,4.23634361 L188.051101,4.4345815 L188.051101,4.51387665 L188.132709,4.62819383 L188.330947,4.98337004 L188.683811,5.92863436 L189.037665,6.75462555 L189.352533,7.34405286 L189.430837,7.7342511 L189.352533,8.16707048 L189.037665,8.79482379 L188.804075,9.22830396 L188.804075,9.3469163 L188.684141,9.54515419 L189.155617,10.1709251 L189.626762,10.8409692 L191.045485,12.689207 L191.39967,13.1986784 L191.478304,13.3566079 L191.556938,13.5531938 L191.556938,13.747467 L191.478304,13.9476872 L191.39967,14.103304 L191.164097,14.2988987 L190.926211,14.4204846 L190.731938,14.4204846 L190.653965,14.2988987 L190.572357,14.1832599 L190.338106,13.9476872 L190.338106,13.5931718 L190.25815,13.278304 L189.982599,12.8468062 L189.626762,12.4139868 L189.155617,12.0204846 L188.684141,11.7075991 L188.211344,11.2367841 L188.211344,12.095815 L188.331278,12.6885463 L188.525551,13.5522026 L188.804075,14.846696 L189.037665,16.069163 L189.155617,17.2486784 L189.353855,18.9006608 L189.353855,20.7479075 L189.235242,21.0237885 L189.156608,21.3373348 L188.956388,21.6115639 L188.607489,21.9231278 L188.213656,22.0394273 Z M143.731388,6.00660793 L143.809361,6.39680617 L143.96696,6.59504405 L143.96696,6.2814978 L144.044934,5.92797357 L144.204846,5.72973568 L144.397797,5.4561674 L144.794273,4.98403084 L144.871256,4.82973568 L145.031167,4.51453744 L145.147467,3.60726872 L145.147467,2.54768722 L144.871256,3.29405286 L144.794273,3.60693833 L144.478414,3.96046256 L144.398128,4.15870044 L144.205176,4.35462555 L144.045264,4.4339207 L143.809692,4.35462555 L143.613767,4.90539648 L143.495485,5.45484581 L143.495485,5.7284141 L143.731388,6.00660793 Z M168.922467,25.7385463 L169.396916,26.8364537 L169.475551,26.9557269 L169.673789,27.1123348 L169.753744,27.1123348 L169.946696,27.2279736 L170.343172,27.3488987 L170.737335,27.3488987 L171.601652,27.2279736 L172.271696,27.2279736 L172.271696,25.1871145 L172.349009,24.2828194 L172.547247,23.1019824 L172.667181,22.1610132 L172.742841,21.6095815 L172.742841,21.4936123 L172.667181,21.6109031 L172.547247,21.9244493 L172.349009,22.1623348 L172.193392,22.3585903 L171.837555,22.5928414 L171.601652,22.7910793 L170.50011,23.9705947 L169.674119,24.915859 L168.922467,25.7385463 Z M155.501762,22.7890969 L155.894604,23.813326 L156.130176,24.7556167 L156.485352,22.7904185 L156.563326,21.847467 L156.563326,21.4936123 L156.485352,21.6109031 L156.129515,22.0017621 L156.009581,22.276652 L155.501762,22.7890969 Z M143.020044,24.9135463 L142.669163,26.0530837 L142.550551,26.6008811 L142.468943,26.9573789 L142.550551,27.1139868 L142.669163,27.4668502 L142.82478,27.6234581 L143.020374,27.9006608 L143.494824,28.2928414 L144.084912,28.7656388 L143.809361,28.2928414 L143.613436,28.0169604 L143.415198,27.6634361 L143.415198,27.6234581 L143.730396,27.3505507 L143.80837,27.1139868 L143.965969,26.9573789 L143.730396,26.4845815 L143.415198,26.0530837 L143.020044,24.9135463 Z M153.453304,13.5522026 L152.981828,13.2773128 L152.588987,13.0823789 L152.588987,14.023348 L152.704626,14.6534141 L152.78326,15.4414097 L152.981498,16.1881057 L153.335683,17.1703744 L153.729185,18.1113436 L154.632819,20.2737885 L154.910022,19.6460352 L155.105617,18.5844714 L155.303855,17.4835903 L155.303855,16.4226872 L155.224559,16.1877753 L155.224559,16.0685022 L155.105947,16.1877753 L155.105947,16.2664097 L155.068943,16.539978 L154.988987,16.8171806 L154.753414,17.1700441 L154.753414,17.2480176 L154.398238,17.2480176 L154.004736,17.1700441 L153.729846,16.9351322 L153.649229,16.7368943 L153.453634,16.5409692 L153.453634,16.1874449 L153.534251,15.7129956 L153.649229,15.320815 L153.534251,14.7707048 L153.453304,13.5522026 Z M149.990088,21.335022 L150.93304,23.101652 L151.20859,23.811674 L151.287225,24.0839207 L151.287225,24.4390969 L151.956278,23.4954846 L152.704295,22.5918502 L152.036564,21.6095815 L151.408811,20.7459251 L151.210573,20.2731278 L151.053304,19.801652 L150.817731,19.3701542 L150.817731,18.7400881 L150.463546,20.1165198 L150.265308,20.7442731 L149.990088,21.335022 Z M159.752643,10.9186123 L159.595044,10.7623348 L159.51641,10.6460352 L159.044273,15.1229075 L159.122577,17.4046256 L159.122577,21.0214758 L159.31685,20.5886564 L159.515088,20.1165198 L159.515088,19.6457048 L159.593722,18.898348 L159.870264,17.4046256 L160.144824,15.9109031 L160.5413,14.419163 L160.5413,13.5931718 L160.659912,12.7671806 L160.382709,12.3376652 L160.028194,11.7845815 L159.753634,11.2351322 L159.753634,10.9186123 L159.752643,10.9186123 Z M148.887885,28.685022 L148.80859,28.7636564 L149.006828,28.8406388 L149.164097,28.9579295 L149.636894,29.0378855 L150.424229,29.1171806 L149.991079,28.369163 L149.086784,26.2060573 L149.714537,25.7382159 L149.480286,25.1867841 L149.243062,24.5590308 L149.007489,23.9696035 L148.809251,23.813326 L148.690639,23.6150881 L148.534692,23.89163 L148.336454,24.0852423 L148.138216,24.2834802 L147.863656,24.5587004 L147.863656,26.1317181 L147.940969,26.9577093 L148.059251,27.3505507 L148.137885,27.6634361 L148.610683,27.6634361 L148.806278,27.7827093 L149.004515,27.7827093 L149.084471,28.0169604 L149.240088,28.0955947 L149.240088,28.2938326 L149.398018,28.5697137 L149.084471,28.5697137 L148.887885,28.685022 Z M146.36696,27.898348 L146.289978,27.4648678 L146.289978,26.8371145 L146.094383,27.1129956 L145.817181,27.622467 L146.36696,27.898348 Z M145.662555,24.0835903 L145.224119,23.2599119 L144.713987,22.2763216 L144.398128,22.6704846 L144.55804,22.9856828 L144.713987,23.4178414 L144.871256,24.3594714 L145.031167,25.1061674 L145.662555,24.0835903 Z M139.087665,25.105837 L139.401872,25.1471366 L139.716079,25.2264317 L139.992621,25.3827093 L140.229515,25.5786344 L140.42511,25.815859 L140.584361,26.0881057 L140.661013,26.4046256 L140.698678,26.7204846 L140.661013,27.0340308 L140.584361,27.3482379 L140.42511,27.6211454 L140.229515,27.8590308 L139.992621,28.0556167 L139.716079,28.1748899 L139.401872,28.2905286 L138.770485,28.2905286 L138.457599,28.1748899 L138.222026,28.0556167 L137.984802,27.8590308 L137.786564,27.6211454 L137.627974,27.3482379 L137.513656,27.0340308 L137.513656,26.4062775 L137.627974,26.0897577 L137.786564,25.817511 L137.984802,25.5802863 L138.222026,25.3843612 L138.457599,25.2280837 L138.770485,25.1487885 L139.087665,25.105837 Z M139.087665,25.3067181 L138.810463,25.3424009 L138.535903,25.421696 L138.300991,25.5386564 L138.102753,25.7368943 L137.946806,25.9328194 L137.788216,26.1677313 L137.709581,26.4432819 L137.670925,26.719163 L137.709581,26.9950441 L137.788216,27.26663 L137.946806,27.505837 L138.102753,27.6994493 L138.300991,27.8976872 L138.535903,28.0139868 L138.810463,28.0926211 L139.087665,28.1332599 L139.363546,28.0926211 L139.636454,28.0139868 L139.875,27.8976872 L140.10859,27.6994493 L140.269493,27.505837 L140.386784,27.26663 L140.465419,26.9950441 L140.504075,26.719163 L140.465419,26.4432819 L140.386784,26.1677313 L140.269493,25.9328194 L140.10859,25.7368943 L139.875,25.5386564 L139.636454,25.421696 L139.363546,25.3424009 L139.087665,25.3067181 Z M139.913656,26.3259912 L139.87467,26.2060573 L139.834692,26.0511013 L139.756388,25.9711454 L139.636454,25.8538546 L139.560793,25.815859 L139.402203,25.7378855 L139.284251,25.7378855 L139.164317,25.6979075 L138.929405,25.7378855 L138.770815,25.815859 L138.615859,25.8931718 L138.45793,26.0117841 L138.377974,26.1690529 L138.301652,26.3263216 L138.261013,26.5222467 L138.261013,26.9157489 L138.301652,27.0743392 L138.377974,27.2679515 L138.45793,27.4285242 L138.615859,27.5448238 L138.770815,27.6211454 L138.929405,27.7004405 L139.322247,27.7004405 L139.442181,27.6611233 L139.597137,27.5838106 L139.71674,27.5068282 L139.796696,27.3882159 L139.87533,27.2676211 L139.914317,27.1120044 L139.952974,26.9553965 L139.756388,26.9553965 L139.71641,27.1903084 L139.560463,27.3885463 L139.481167,27.4648678 L139.401872,27.5071586 L139.283921,27.5451542 L138.968062,27.5451542 L138.810132,27.4651982 L138.695815,27.3888767 L138.615198,27.3095815 L138.535573,27.151652 L138.457269,27.0343612 L138.41663,26.8764317 L138.41663,26.5612335 L138.457269,26.4049559 L138.535573,26.2463656 L138.615198,26.1307269 L138.695815,26.0121145 L138.810132,25.934141 L138.968062,25.8935022 L139.163656,25.854185 L139.361894,25.8935022 L139.519163,26.0121145 L139.675441,26.1307269 L139.754736,26.3263216 L139.913656,26.3259912 Z M0,0.148348018 L142.468943,0.148348018 L143.494824,0.227643172 L143.96696,0.227643172 L144.396476,0.308259912 L144.712335,0.503854626 L144.869604,0.698788546 L145.029515,0.856718062 L145.145815,1.1719163 L145.222467,0.975330396 L145.461013,0.698788546 L145.659251,0.503854626 L145.813546,0.308259912 L146.286344,0.227643172 L146.641189,0.148348018 L147.032709,0.227643172 L147.387885,0.308259912 L147.702093,0.38623348 L147.939317,0.582819383 L148.137555,0.857048458 L148.214537,1.05528634 L148.334471,1.33182819 L148.334471,2.39140969 L148.136233,2.98215859 L147.937996,3.41497797 L147.582159,3.96211454 L147.309251,4.23931718 L147.111013,4.35726872 L146.953744,4.43656388 L146.75815,4.51585903 L146.559912,4.43656388 L146.640529,4.90803965 L146.75848,5.37885463 L146.954075,5.73105727 L147.111344,6.12455947 L147.466189,6.91189427 L147.862665,7.42400881 L147.939978,7.93281938 L148.05826,8.16839207 L148.531057,7.06817181 L148.609692,6.75594714 L148.686674,6.47874449 L148.805286,6.20286344 L149.003524,5.92995595 L149.397026,5.37852423 L149.710573,4.90770925 L149.831828,4.62984581 L149.907489,4.23898678 L150.144714,3.60825991 L150.144714,3.05748899 L149.987445,1.79933921 L149.987445,1.32918502 L150.144714,0.855396476 L150.262004,0.69746696 L150.420595,0.50253304 L150.616189,0.306938326 L150.930396,0.226321586 L151.284581,0.147026432 L152.033921,0.147026432 L152.350441,0.226321586 L152.701652,0.384911894 L152.898238,0.581497797 L153.059141,0.855726872 L153.176101,1.05396476 L153.253414,1.33050661 L153.33337,1.72268722 L153.33337,2.31211454 L153.253414,2.90088106 L153.059141,3.41365639 L152.780617,3.88513216 L152.504736,4.23799559 L152.350771,4.35594714 L152.231167,4.43524229 L152.03293,4.43524229 L151.952974,4.35594714 L151.7587,5.18193833 L151.678084,5.45550661 L151.7587,5.65209251 L151.875,6.12290749 L152.152203,6.91024229 L152.350441,7.22312775 L152.504405,7.7339207 L152.504405,8.16674009 L152.586013,8.79449339 L152.586013,10.5660793 L152.701652,10.761674 L152.898238,10.9179515 L153.33304,11.5457048 L153.33304,11.0349119 L153.45033,10.6433921 L154.395264,7.92885463 L154.907709,6.59372247 L155.103304,6.12092511 L155.301542,5.84669604 L155.892291,5.37522026 L156.561013,4.90440529 L157.186784,4.43292952 L157.58326,4.04008811 L157.743172,3.88281938 L157.743172,3.52698238 L157.58326,2.97819383 L157.504626,2.38744493 L157.388987,1.79801762 L157.58326,1.24790749 L157.743172,0.973017621 L157.89978,0.696475771 L158.177643,0.383590308 L158.451872,0.225 L158.844053,0.145704846 L159.314868,0.145704846 L159.750661,0.225 L160.143833,0.30561674 L160.4587,0.501211454 L160.656938,0.696145374 L160.692621,0.972687225 L160.811233,1.32786344 L160.811233,2.78160793 L160.692621,3.17246696 L160.538326,3.41035242 L160.457709,3.72389868 L160.222137,3.95748899 L160.023899,4.03909692 L159.867952,4.03909692 L159.59141,4.15704846 L159.313546,4.15704846 L159.199229,4.23502203 L159.199229,4.35297357 L159.313546,4.51156388 L159.313546,4.82676211 L159.199229,4.98105727 L159.199229,5.1003304 L159.313546,5.37455947 L159.395154,5.64977974 L159.513106,6.00396476 L159.74967,6.98557269 L159.947907,7.65429515 L160.222797,8.32202643 L160.45837,7.85121145 L160.538987,7.3410793 L160.812225,6.90759912 L161.128084,6.3938326 L161.206388,5.92599119 L161.285022,5.17962555 L161.639868,3.17279736 L161.954075,2.22918502 L162.230617,1.24757709 L162.42489,0.972687225 L162.586454,0.579845815 L162.9,0.30561674 L163.173568,0.225 L163.529075,0.145704846 L164.276432,0.145704846 L164.551982,0.225 L164.90848,0.383590308 L165.222357,0.580176211 L165.340639,0.854405286 L165.534912,1.05264317 L165.614868,1.64207048 L165.614868,2.31079295 L165.534912,2.78359031 L165.340639,3.29306167 L165.222357,3.72588106 L164.787885,4.15870044 L164.670595,4.23667401 L164.472357,4.23667401 L164.274119,4.35462555 L164.118172,4.23667401 L163.998899,5.10165198 L163.998899,5.65110132 L164.118172,6.1219163 L164.274119,6.75363436 L164.982819,7.93017621 L165.3,8.5215859 L165.3,8.7938326 L165.338656,8.99207048 L165.3,9.22632159 L165.063106,9.81640969 L164.98315,10.2885463 L164.906498,10.5644273 L164.906498,10.760022 L165.063106,10.9162996 L165.220374,11.2328194 L165.613216,11.7822687 L166.599119,12.6082599 L167.146256,12.8431718 L167.896256,13.353304 L168.5663,13.8270925 L168.764537,14.0207048 L168.84152,14.1799559 L168.918833,14.4928414 L168.84152,14.6507709 L168.764537,14.8443833 L168.645925,15.0459251 L168.370374,15.1209251 L167.627313,15.1209251 L167.548018,14.8443833 L167.233811,14.4928414 L166.999559,14.1799559 L166.603084,13.8284141 L166.245925,13.5512115 L165.734141,13.2763216 L165.304626,13.0813877 L164.790529,12.764207 L164.911123,13.745815 L164.911123,14.4944934 L165.067731,15.1222467 L165.304626,15.9882159 L165.854736,17.5618943 L166.603084,19.4484581 L167.15022,21.1387665 L167.468722,21.6888767 L167.546035,22.0417401 L167.822577,22.8677313 L168.097467,23.4954846 L169.673458,21.3353524 L170.656388,20.197467 L170.854626,19.9209251 L170.970264,19.3701542 L171.289097,18.1106828 L171.601652,16.8168502 L171.721256,16.4226872 L171.403414,15.713326 L171.172137,15.1232379 L171.172137,14.6544053 L171.603634,13.5535242 L171.839537,12.8471366 L171.839537,12.5319383 L171.996476,11.5496696 L171.996476,10.84163 L171.839537,10.84163 L171.723238,11.4323789 L171.172467,12.6118943 L170.972247,13.1990088 L170.856608,13.8307269 L170.739317,14.420815 L170.739317,15.1245595 L170.659361,15.5190529 L170.502093,15.7146476 L170.422137,15.9128855 L170.225551,16.0701542 L169.949009,16.4246696 L169.676101,16.4246696 L169.596145,16.2683921 L169.397907,16.1897577 L169.201322,15.9915198 L169.006388,15.7959251 L169.006388,15.4407489 L169.279956,15.1229075 L169.476211,14.96663 L169.594824,14.7710352 L169.594824,14.5754405 L169.476211,13.9476872 L169.476211,12.6895374 L169.674449,11.3514317 L169.754405,10.5677313 L169.907048,10.0949339 L170.34152,8.87610132 L170.892952,7.73524229 L171.401762,6.47973568 L171.836233,5.73171806 L172.347687,5.1845815 L172.821145,4.83171806 L173.096035,4.51651982 L173.29163,4.35792952 L173.489868,4.16200441 L173.567841,4.04405286 L173.567841,3.88348018 L173.489868,3.60561674 L173.410573,3.17411894 L173.290639,2.78325991 L173.290639,2.38678414 L173.213656,1.99394273 L173.290639,1.52114537 L173.410573,1.16894273 L173.686454,0.696145374 L173.763436,0.501211454 L173.920705,0.30561674 L174.159251,0.225 L174.313546,0.145704846 L174.746696,0.0693832599 L175.141189,0.145704846 L175.495705,0.225 L175.693943,0.30561674 L176.244714,0.579845815 L176.402313,0.579845815 L176.44163,0.774779736 L176.55826,0.973017621 L176.637555,1.24790749 L176.795154,1.52147577 L176.795154,2.15286344 L176.637555,2.46806167 L176.44196,3.055837 L176.402643,3.29140969 L176.245044,3.60429515 L176.052423,3.88348018 L175.812225,4.0407489 L175.537665,4.15870044 L175.263436,4.23667401 L175.143502,4.23667401 L175.143502,4.35462555 L175.065529,4.62753304 L175.143502,4.98270925 L175.143502,5.18094714 L175.065529,5.37588106 L175.065529,7.92984581 L175.143502,8.7935022 L175.380727,9.54284141 L175.537996,9.97235683 L175.61663,10.1689427 L175.697247,10.2895374 L176.445264,9.81740088 L177.310242,9.14933921 L178.37478,8.40132159 L181.521476,12.3330396 L179.435683,14.1009912 L179.513987,14.2965859 L179.513987,14.4948238 L179.435683,14.4948238 L179.435683,14.5747797 L179.159802,14.7703744 L179.081498,14.9659692 L178.88326,15.1222467 L178.687004,15.2431718 L178.294824,15.2431718 L178.096586,15.0472467 L176.326322,16.5389868 L175.263436,15.1222467 L175.380396,15.5167401 L175.497687,16.6556167 L175.497687,18.2286344 L175.380396,19.1722467 L175.143172,20.115859 L175.263106,21.020815 L175.263106,22.1603524 L175.143172,22.3566079 L175.065198,22.590859 L174.592401,25.1861233 L174.396806,27.03337 L174.315859,27.6611233 L174.315859,28.2118943 L174.712335,28.5660793 L175.06652,28.8403084 L175.498678,29.1168502 L175.696916,29.2331498 L176.129075,29.2331498 L176.444934,29.3131057 L176.798458,29.5113436 L176.876432,29.5893172 L176.876432,29.7865639 L176.798458,29.8645374 L176.561564,29.9818282 L172.271366,29.9818282 L172.193062,29.8645374 L172.193062,29.7865639 L172.113106,29.7079295 L172.193062,29.5129956 L172.193062,28.9592511 L172.271366,28.2135463 L171.048899,28.5677313 L169.907048,29.0382159 L169.474229,29.2338106 L169.199339,29.3900881 L168.921476,29.588326 L168.569934,29.588326 L168.371696,29.3900881 L168.293062,29.2338106 L168.293062,28.9579295 L168.176762,28.4871145 L168.096145,28.014978 L167.627313,27.2279736 L167.548018,27.4651982 L167.470705,27.6218062 L167.349449,28.0939427 L167.470705,28.5667401 L167.548018,29.0382159 L167.548018,29.2338106 L167.627313,29.3137665 L167.980176,29.3900881 L168.296366,29.588326 L168.375,29.7056167 L168.453634,29.8618943 L168.375,29.8618943 L168.296366,29.979185 L167.627313,29.979185 L167.152203,29.8618943 L166.879295,29.7839207 L166.6837,29.7052863 L166.523458,29.5103524 L166.366189,29.3121145 L166.051982,28.7620044 L165.619163,28.289207 L165.069053,27.2263216 L164.989097,27.0327093 L164.989097,26.8344714 L165.069053,26.6795154 L165.305947,26.5972467 L165.735463,26.1287445 L166.365529,25.7365639 L166.522797,25.6572687 L166.604405,25.4973568 L166.247247,24.6343612 L165.855396,23.7307269 L165.462555,22.9843612 L165.068392,22.275 L164.004515,20.7439427 L163.650661,20.0368943 L163.257819,19.2495595 L162.980617,18.4622247 L162.980617,18.1087004 L162.902643,17.795815 L162.784692,18.4622247 L162.589097,19.089978 L162.311894,19.7177313 L162.034692,20.2678414 L161.484581,21.3300661 L160.814537,22.3523128 L160.145815,23.4132159 L159.398458,24.434141 L159.122577,25.0242291 L158.846366,25.5743392 L158.648128,26.1257709 L158.453855,26.8314978 L158.37522,27.3436123 L158.37522,27.7757709 L159.201211,27.7757709 L159.869934,27.6564978 L160.226432,27.6564978 L160.462004,27.7757709 L160.542621,27.8937225 L160.542621,28.2859031 L160.146145,28.5617841 L159.317181,29.0332599 L159.515419,29.2288546 L159.870595,29.2288546 L160.224449,29.3088106 L160.382048,29.3851322 L160.460022,29.701652 L160.460022,29.7865639 L160.382048,29.8645374 L160.145154,29.9818282 L156.010573,29.9818282 L155.894934,29.8645374 L155.8163,29.7082599 L155.8163,28.9595815 L155.894934,28.292511 L155.303524,27.5451542 L154.752753,26.5992291 L154.279295,25.6592511 L153.805176,24.635022 L152.780947,25.7372247 L152.233811,26.4825991 L152.035573,26.680837 L151.955617,26.835793 L151.877643,26.9550661 L151.955617,27.111674 L152.035573,27.3482379 L152.233811,27.5444934 L152.429075,27.660793 L152.704626,27.7800661 L154.202313,27.7800661 L154.753744,27.660793 L155.304515,27.7800661 L155.382489,27.7800661 L155.619383,27.8980176 L155.737996,28.0929515 L155.737996,28.2911894 L155.619383,28.4877753 L155.502423,28.5670705 L155.105947,28.7653084 L154.397907,29.1188326 L153.805837,29.3917401 L153.335683,29.7082599 L152.981498,29.7868943 L152.588656,29.8648678 L152.23348,29.9821586 L151.487115,29.9821586 L151.288877,29.8648678 L151.210242,29.7868943 L151.131938,29.5909692 L151.131938,29.7082599 L151.053304,29.8645374 L150.817731,29.8645374 L150.463546,29.9818282 L145.030837,29.9818282 L144.911564,29.8645374 L144.870925,29.7082599 L144.793943,29.8645374 L144.713987,29.9818282 L143.495485,29.9818282 L142.469604,29.8645374 L0,29.8645374 L0,1.4715859 L0,0.148348018 Z" id="Shape" fill="#000000"></path>
            </g>
        </g>
    </g>
</svg>