
<svg version="1.1" id="Layer_1" xmlns="http://www.w3.org/2000/svg" xmlns:xlink="http://www.w3.org/1999/xlink" x="0px" y="0px"
     viewBox="0 0 198 40" style="enable-background:new 0 0 198 40;" xml:space="preserve">
<style type="text/css">
	.st0{fill-rule:evenodd;clip-rule:evenodd;fill:#003087;}
	.st1{fill:#003087;}
</style>
  <g>
	<path class="st0" d="M10.3,20.2H1.1c0-1.7,0.1-3,0.3-3.8c0.2-0.9,0.7-1.6,1.3-2.3c1.1-1.2,2.9-1.9,5.3-2.2c1.1-0.2,3-0.2,5.6-0.2
		c4.5,0,7.6,0.5,9.4,1.4c2.2,1.1,3.4,3,3.8,5.6c0.2,1.4,0.3,2.4,0.3,3.1v18h-9l0.3-4.5h-0.2c-0.6,1.6-1.3,2.8-2.4,3.5
		c-0.8,0.6-1.6,0.9-2.6,1.1c-1,0.2-2.2,0.2-3.5,0.2c-2,0-3.5-0.2-4.7-0.5c-1.2-0.3-2.2-0.9-3-1.6C0.7,36.6,0,34.3,0,31.2
		c0-2.9,0.7-4.9,2-6.1c1.7-1.5,4.3-2.3,7.9-2.3c2.8,0,4.8,0.3,6,0.9c0.8,0.4,1.5,1.3,2,2.6H18v-5.5c0-1.2-0.2-2.1-0.7-2.6
		c-0.7-0.7-1.9-1-3.5-1c-1.6,0-2.7,0.4-3.1,1.1C10.5,18.6,10.3,19.3,10.3,20.2L10.3,20.2z M13.3,28.2c-1.5,0-2.6,0.2-3.3,0.7
		c-0.6,0.4-0.9,1.1-0.9,2.2c0,1.3,0.4,2.2,1.1,2.5c0.7,0.3,2,0.5,3.9,0.5c1.5,0,2.5-0.2,3.1-0.7c0.5-0.4,0.8-1.3,0.8-2.5
		c0-0.9-0.2-1.5-0.6-1.8C16.8,28.5,15.4,28.2,13.3,28.2L13.3,28.2z"/>
    <path class="st1" d="M57.6,19.8H49l-0.1-0.4c-0.2-0.8-0.5-1.3-1-1.6c-0.5-0.3-1.6-0.4-3.2-0.4c-1.7,0-2.8,0.1-3.3,0.4
		c-0.6,0.3-0.9,1-0.9,1.9c0,1.2,0.5,1.9,1.4,2.1c0.3,0.1,2.2,0.2,5.5,0.4c3,0.2,5,0.4,6.1,0.6c2,0.5,3.4,1.5,4.2,2.9
		c0.7,1.2,1,2.7,1,4.7c0,3.2-0.9,5.6-2.8,7.1c-1.3,1-2.7,1.6-4.2,1.9c-2,0.3-4.3,0.5-7,0.5c-4,0-6.8-0.3-8.5-1
		c-2.4-0.9-3.9-2.6-4.4-5c-0.1-0.7-0.2-1.7-0.2-3h9.2c0,0.3,0,0.4,0,0.6c0,1,0.3,1.7,0.8,2c0.6,0.3,1.8,0.5,3.6,0.5
		c2,0,3.4-0.2,4-0.7c0.4-0.3,0.7-0.9,0.7-1.7c0-0.9-0.2-1.6-0.5-1.9c-0.5-0.5-1.6-0.8-3.4-0.8c-4.7-0.1-7.9-0.4-9.6-0.9
		c-1.8-0.6-3.1-1.6-3.8-3.1c-0.6-1.1-0.9-2.7-0.9-4.7c0-3.5,1-5.8,3-7c1-0.6,2.2-1,3.8-1.2c1.6-0.2,3.8-0.4,6.6-0.4
		c3.7,0,6.3,0.3,7.9,0.8c2.2,0.8,3.6,2.3,4.2,4.4C57.5,17.5,57.6,18.5,57.6,19.8L57.6,19.8z"/>
    <path class="st0" d="M80.1,30.4H89c0,0.3,0,0.4,0,0.6c0,2.4-0.5,4.3-1.6,5.8c-1,1.3-2.4,2.2-4.4,2.7c-1.4,0.3-3.7,0.5-6.7,0.5
		c-4.1,0-7.1-0.4-9-1.3c-2.6-1.2-4.1-3.4-4.7-6.5c-0.3-1.5-0.4-3.9-0.4-7.1c0-3.9,0.4-6.7,1.1-8.3c1.1-2.4,3.1-3.9,6.2-4.6
		c1.5-0.4,3.6-0.6,6.3-0.6c3.6,0,6.3,0.4,8.1,1.2c2.5,1.1,4.1,3.3,4.7,6.6c0.3,1.2,0.4,2.9,0.4,5c0,0.6,0,1.6,0,2.9H71.2
		c0,0.5,0,0.8,0,1.1c0,2,0.3,3.4,0.9,4.1c0.7,0.8,1.9,1.2,3.9,1.2c1.9,0,3.2-0.4,3.7-1.1C79.9,32.2,80.1,31.4,80.1,30.4L80.1,30.4z
		 M80.3,22.3c0-0.4,0-0.7,0-0.9c0-1.3-0.3-2.1-0.7-2.6c-0.4-0.4-1-0.7-1.7-0.8c-0.6-0.1-1.4-0.1-2.3-0.1c-1.3,0-2.2,0.1-2.7,0.3
		c-0.9,0.4-1.4,1.2-1.5,2.3c0,0.2,0,0.7-0.1,1.6H80.3L80.3,22.3z"/>
    <polygon class="st1" points="102.9,0 102.9,39.7 93.9,39.7 93.9,0 102.9,0 	"/>
    <path class="st1" d="M133.6,19.8H125l-0.1-0.4c-0.2-0.8-0.5-1.3-1-1.6c-0.5-0.3-1.6-0.4-3.2-0.4c-1.7,0-2.8,0.1-3.3,0.4
		c-0.6,0.3-0.9,1-0.9,1.9c0,1.2,0.5,1.9,1.4,2.1c0.3,0.1,2.2,0.2,5.5,0.4c3,0.2,5,0.4,6.1,0.6c2,0.5,3.4,1.5,4.2,2.9
		c0.7,1.2,1,2.7,1,4.7c0,3.2-0.9,5.6-2.8,7.1c-1.3,1-2.7,1.6-4.2,1.9c-2,0.3-4.3,0.5-7,0.5c-4,0-6.8-0.3-8.5-1
		c-2.4-0.9-3.9-2.6-4.4-5c-0.1-0.7-0.2-1.7-0.2-3h9.2c0,0.3,0,0.4,0,0.6c0,1,0.3,1.7,0.8,2c0.6,0.3,1.8,0.5,3.6,0.5
		c2,0,3.4-0.2,4-0.7c0.4-0.3,0.7-0.9,0.7-1.7c0-0.9-0.2-1.6-0.5-1.9c-0.5-0.5-1.6-0.8-3.4-0.8c-4.7-0.1-7.9-0.4-9.6-0.9
		c-1.8-0.6-3.1-1.6-3.8-3.1c-0.6-1.1-0.9-2.7-0.9-4.7c0-3.5,1-5.8,3-7c1-0.6,2.2-1,3.8-1.2c1.6-0.2,3.8-0.4,6.6-0.4
		c3.7,0,6.3,0.3,7.9,0.8c2.2,0.8,3.6,2.3,4.2,4.4C133.5,17.5,133.6,18.5,133.6,19.8L133.6,19.8z"/>
    <path class="st0" d="M148.8,20.2h-9.2c0-1.7,0.1-3,0.3-3.8c0.2-0.9,0.7-1.6,1.3-2.3c1.1-1.2,2.9-1.9,5.3-2.2c1.1-0.2,3-0.2,5.6-0.2
		c4.5,0,7.6,0.5,9.4,1.4c2.2,1.1,3.4,3,3.8,5.6c0.2,1.4,0.3,2.4,0.3,3.1v18h-9l0.3-4.5h-0.2c-0.6,1.6-1.3,2.8-2.4,3.5
		c-0.8,0.6-1.6,0.9-2.6,1.1c-1,0.2-2.2,0.2-3.5,0.2c-2,0-3.5-0.2-4.7-0.5c-1.2-0.3-2.2-0.9-3-1.6c-1.4-1.3-2.1-3.6-2.1-6.8
		c0-2.9,0.7-4.9,2-6.1c1.7-1.5,4.3-2.3,7.9-2.3c2.8,0,4.8,0.3,6,0.9c0.8,0.4,1.5,1.3,2,2.6h0.1v-5.5c0-1.2-0.2-2.1-0.7-2.6
		c-0.7-0.7-1.9-1-3.5-1c-1.6,0-2.7,0.4-3.1,1.1C149,18.6,148.9,19.3,148.8,20.2L148.8,20.2z M151.8,28.2c-1.5,0-2.6,0.2-3.3,0.7
		c-0.6,0.4-0.9,1.1-0.9,2.2c0,1.3,0.4,2.2,1.1,2.5c0.7,0.3,2,0.5,3.9,0.5c1.5,0,2.5-0.2,3.1-0.7c0.5-0.4,0.8-1.3,0.8-2.5
		c0-0.9-0.2-1.5-0.6-1.8C155.3,28.5,153.9,28.2,151.8,28.2L151.8,28.2z"/>
    <path class="st1" d="M171.5,11.9h9l-0.3,5.4h0.1c0.6-1.8,1.4-3.1,2.3-4c1.3-1.2,3.2-1.8,5.8-1.8c4.4,0,7.2,1.2,8.6,3.7
		c0.7,1.2,1,2.8,1,4.8v19.6h-9V23.8c0-1.8-0.1-3-0.4-3.6c-0.4-1-1.5-1.5-3.1-1.5c-3.3,0-5,1.6-5,4.7v16.3h-9V11.9L171.5,11.9z"/>
</g>
</svg>
